<?xml version="1.0" encoding="iso-8859-1"?>
<!-- Generator: Adobe Illustrator 19.0.0, SVG Export Plug-In . SVG Version: 6.00 Build 0)  -->
<svg version="1.1" id="Capa_1" xmlns="http://www.w3.org/2000/svg" xmlns:xlink="http://www.w3.org/1999/xlink" x="0px" y="0px"
	 viewBox="0 0 512 512" style="enable-background:new 0 0 512 512;" xml:space="preserve">
<g>
	<path style="fill:#898785;" d="M490.518,273.5H478.5c-4.142,0-7.5-3.358-7.5-7.5v-45c0-4.142,3.358-7.5,7.5-7.5h12.018
		c11.845,0,21.482,9.637,21.482,21.482v17.035C512,263.863,502.363,273.5,490.518,273.5z M486,258.5h4.518
		c3.574,0,6.482-2.908,6.482-6.482v-17.035c0-3.574-2.908-6.482-6.482-6.482H486V258.5z"/>
	<path style="fill:#898785;" d="M34.5,273.5H21.482C9.637,273.5,0,263.863,0,252.018v-17.035C0,223.137,9.637,213.5,21.482,213.5
		H34.5c4.142,0,7.5,3.358,7.5,7.5v45C42,270.142,38.642,273.5,34.5,273.5z M21.482,228.5c-3.574,0-6.482,2.908-6.482,6.482v17.035
		c0,3.574,2.908,6.482,6.482,6.482H27v-30h-5.518V228.5z"/>
	<path style="fill:#898785;" d="M71.318,134.737v-25.933c0-2.929,2.375-5.304,5.304-5.304h33.755c2.929,0,5.304,2.375,5.304,5.304
		v25.933H71.318z"/>
</g>
<path style="fill:#756F6B;" d="M96.05,103.5H76.623c-2.929,0-5.304,2.375-5.304,5.304v25.933h19.428v-25.933
	C90.746,105.875,93.121,103.5,96.05,103.5z"/>
<path style="fill:#B5B2B0;" d="M66.5,166.324v-32.538c0-4.576,3.71-8.286,8.286-8.286h37.427c4.576,0,8.286,3.71,8.286,8.286v32.538
	H66.5z"/>
<path style="fill:#898785;" d="M94.214,125.5H74.786c-4.576,0-8.286,3.71-8.286,8.286v32.538h19.428v-32.538
	C85.928,129.21,89.638,125.5,94.214,125.5z"/>
<rect x="169" y="115.87" style="fill:#C7EAEA;" width="75" height="42.26"/>
<rect x="169" y="115.87" style="fill:#A6D1D0;" width="34.02" height="42.26"/>
<path style="fill:#3A3735;" d="M162,122.986v-15.972c0-1.941,1.573-3.514,3.514-3.514h81.972c1.941,0,3.514,1.573,3.514,3.514
	v15.972c0,1.941-1.573,3.514-3.514,3.514h-81.972C163.573,126.5,162,124.927,162,122.986z"/>
<path style="fill:#2D2521;" d="M207.721,115.871c-6.832,0-12.371-5.539-12.371-12.371l0,0h-29.836c-1.941,0-3.514,1.573-3.514,3.514
	v15.972c0,1.941,1.573,3.514,3.514,3.514h81.972c1.941,0,3.514-1.573,3.514-3.514v-7.115H207.721z"/>
<path style="fill:#B5B2B0;" d="M34,194.5v19v177.552c0,9.621,7.827,17.448,17.448,17.448h410.104
	c9.621,0,17.448-7.827,17.448-17.448V213.5v-19H34z"/>
<polygon style="fill:#DD3A3A;" points="338.293,213.5 174.707,213.5 34,213.5 34,364.099 129.779,364.099 320.553,364.5 479,364.5 
	479,213.5 "/>
<path style="fill:#938379;" d="M263.271,402.283c-58.173,0-105.5-47.327-105.5-105.5s47.327-105.5,105.5-105.5
	s105.5,47.327,105.5,105.5S321.444,402.283,263.271,402.283z"/>
<path style="fill:#BA2222;" d="M327.957,213.5H198.586c-24.82,19.319-40.815,49.466-40.815,83.283
	c0,25.618,9.182,49.13,24.423,67.426l138.359,0.291h23.549c15.388-18.337,24.669-41.962,24.669-67.717
	C368.771,262.966,352.777,232.819,327.957,213.5z"/>
<polygon style="fill:#B21D1D;" points="338.293,213.5 174.707,213.5 34,213.5 34,237.423 174.707,237.423 338.293,237.423 
	479,237.423 479,213.5 "/>
<path style="fill:#898785;" d="M461.552,125.5H311.664c-4.022,0-7.941,1.267-11.203,3.62l-26.854,19.38H51.448
	C41.812,148.5,34,156.312,34,165.948V213.5h445v-70.552C479,133.312,471.188,125.5,461.552,125.5z"/>
<path style="fill:#3A3735;" d="M72,186.463v-12.927c0-2.229,1.807-4.037,4.037-4.037h46.927c2.229,0,4.037,1.807,4.037,4.037v12.927
	c0,2.229-1.807,4.037-4.037,4.037H76.037C73.807,190.5,72,188.693,72,186.463z"/>
<path style="fill:#2D2521;" d="M92.218,185c-2.229,0-4.037-1.807-4.037-4.037V169.5H76.037c-2.229,0-4.037,1.807-4.037,4.037v12.927
	c0,2.229,1.807,4.037,4.037,4.037h46.927c2.229,0,4.037-1.807,4.037-4.037V185H92.218z"/>
<path style="fill:#3A3735;" d="M326,169.911v-18.823c0-1.886,1.529-3.415,3.415-3.415h21.171c1.886,0,3.415,1.529,3.415,3.415
	v18.823c0,1.886-1.529,3.415-3.415,3.415h-21.171C327.529,173.326,326,171.797,326,169.911z"/>
<path style="fill:#2D2521;" d="M350.585,147.674h-21.171c-1.886,0-3.415,1.529-3.415,3.415v2.41h1.584
	c10.285,0,18.623,8.338,18.623,18.623v1.205h4.379c1.886,0,3.415-1.529,3.415-3.415v-18.823
	C354,149.203,352.471,147.674,350.585,147.674z"/>
<path style="fill:#7FE4F4;" d="M393.167,190.5c-4.503,0-8.167-3.664-8.167-8.167v-24.667c0-4.503,3.664-8.167,8.167-8.167h52.667
	c4.503,0,8.167,3.664,8.167,8.167v24.667c0,4.503-3.664,8.167-8.167,8.167H393.167z"/>
<path style="fill:#4DCDDB;" d="M445.833,149.5h-52.667c-4.51,0-8.167,3.656-8.167,8.167v0.462h27.474
	c16.413,0,29.718,13.305,29.718,29.718v2.653h3.641c4.51,0,8.167-3.656,8.167-8.167v-24.667
	C454,153.156,450.344,149.5,445.833,149.5z"/>
<path style="fill:#3A3735;" d="M256.5,385.5C198.327,385.5,151,338.173,151,280s47.327-105.5,105.5-105.5S362,221.827,362,280
	S314.673,385.5,256.5,385.5z"/>
<path style="fill:#2D2521;" d="M245.33,271.824c0-37.92,20.114-71.227,50.229-89.826c-12.087-4.834-25.267-7.499-39.059-7.499
	C198.327,174.5,151,221.827,151,280s47.327,105.5,105.5,105.5c20.252,0,39.187-5.741,55.271-15.674
	C272.878,354.269,245.33,316.205,245.33,271.824z"/>
<path style="fill:#6D6864;" d="M256.5,357.5c-42.734,0-77.5-34.766-77.5-77.5s34.766-77.5,77.5-77.5S334,237.266,334,280
	S299.234,357.5,256.5,357.5z"/>
<path style="fill:#605854;" d="M256.5,202.5c-19.621,0-37.549,7.343-51.217,19.407c11.401-6.605,24.62-10.407,38.717-10.407
	c42.734,0,77.5,34.766,77.5,77.5c0,23.113-10.183,43.881-26.283,58.093C318.376,333.676,334,308.636,334,280
	C334,237.266,299.234,202.5,256.5,202.5z"/>
<path style="fill:#7FE4F4;" d="M256.5,319.304c-21.672,0-39.304-17.632-39.304-39.304s17.632-39.304,39.304-39.304
	s39.304,17.632,39.304,39.304S278.172,319.304,256.5,319.304z"/>
<path style="fill:#4DCDDB;" d="M273.283,309.302c-21.672,0-39.304-17.632-39.304-39.304c0-10.799,4.38-20.594,11.454-27.705
	c-16.299,4.792-28.237,19.878-28.237,37.707c0,21.672,17.632,39.304,39.304,39.304c10.873,0,20.727-4.44,27.85-11.599
	C280.837,308.738,277.125,309.302,273.283,309.302z"/>
<path style="fill:#3DBCC9;" d="M256.5,296.783c-9.254,0-16.783-7.529-16.783-16.783s7.529-16.783,16.783-16.783
	s16.783,7.529,16.783,16.783S265.754,296.783,256.5,296.783z"/>
<path style="fill:#24A2A8;" d="M269.642,287.553c-9.254,0-16.783-7.529-16.783-16.783c0-2.674,0.645-5.194,1.762-7.44
	c-8.372,0.938-14.904,8.053-14.904,16.671c0,9.254,7.529,16.783,16.783,16.783c6.58,0,12.272-3.816,15.021-9.342
	C270.903,287.51,270.278,287.553,269.642,287.553z"/>
<path style="fill:#FFFFFF;" d="M277.5,264.805c-10.093,0-18.305-8.211-18.305-18.305c0-10.093,8.211-18.305,18.305-18.305
	s18.305,8.211,18.305,18.305C295.805,256.593,287.593,264.805,277.5,264.805z"/>
<path style="fill:#898785;" d="M151.5,374.254c-13.925,0-25.254-11.329-25.254-25.254s11.329-25.254,25.254-25.254
	s25.254,11.329,25.254,25.254S165.425,374.254,151.5,374.254z"/>
<path style="fill:#7C7976;" d="M145.501,344.559c0-8.384,4.11-15.822,10.417-20.418c-1.436-0.255-2.91-0.395-4.418-0.395
	c-13.925,0-25.254,11.329-25.254,25.254s11.329,25.254,25.254,25.254c5.541,0,10.668-1.799,14.837-4.836
	C154.512,367.322,145.501,356.976,145.501,344.559z"/>
<circle style="fill:#6D6864;" cx="151.5" cy="349" r="9.5"/>
<g>
</g>
<g>
</g>
<g>
</g>
<g>
</g>
<g>
</g>
<g>
</g>
<g>
</g>
<g>
</g>
<g>
</g>
<g>
</g>
<g>
</g>
<g>
</g>
<g>
</g>
<g>
</g>
<g>
</g>
</svg>
